# xmcd
#
# Track frame offsets:
#	150
#	15018
#	30812
#	43630
#	57491
#	71611
#	86312
#	100829
#	115301
#	129209
#	142784
#	156966
#	170289
#	182776
#	196339
#	210985
#	222794
#	235445
#	248174
#	262392
#	276669
#	288118
#	300075
#	312069
#	325507
#
# Disc length: 4506 seconds
# Revision: 4
# Processed by: cddbd v1.5.2PL0 Copyright (c) Steve Scherf et al.
# Submitted via: dBpowerAMP V12.0
#
DISCID=4b119819
DTITLE=Various Artist - Broke, Black and Blue Volume 3 - Good Whiskey Blues
DYEAR=1930
DGENRE=Blues
TTITLE0=Blind Willie Reynolds - Married Man Blues
TTITLE1=Willie Walker - Dupree Blues
TTITLE2=Skip James - 22-20 Blues
TTITLE3=Sam Collins - Lonesome Road Blues
TTITLE4=Leroy Carr and Scrapper Blackwell - Midnight Hour Blues
TTITLE5=Jacob Williams - Fat Mama Blues
TTITLE6=Georgia Boyd - Never Mind Blues
TTITLE7=Kokomo Arnold - The Twelves (Dirty Dozen)
TTITLE8=Big Joe Williams - Little Leg Woman
TTITLE9=Bessie Jackson - That's What My Baby Likes
TTITLE10=Peetie Wheatstraw - Good Whiskey Blues
TTITLE11=Cripple Clarence Lofton - Strut That Thing
TTITLE12=Louie Lasky - Teasin' Brown Blues
TTITLE13=Bumble Bee Slim - Cold Blooded Murder No.2
TTITLE14=Blind Boy Fuller - Baby, You Gotta Change Your Mind
TTITLE15=Walter Davis - Ashes In My Whiskey
TTITLE16=The Mississippi Moaner (Isaiah Nettles) - It's Cold In China Blues
TTITLE17=Jazz Gillum - Jockey Blues
TTITLE18=George Clarke - Prisoner Blues
TTITLE19=Casey Bill Weldon - Back Door Blues
TTITLE20=Buddy Woods - Don't Sell It (Don't Give It Away)
TTITLE21=Washboard Sam - Booker T. Blues
TTITLE22=Litlle Buddy Doyle - Hard Scufflin' Blues
TTITLE23=Lonnie Johnson - Jersey Belle Blues
TTITLE24=Tommy McLennan - Baby, Please Don't Tell On Me
EXTD=
EXTT0=
EXTT1=
EXTT2=
EXTT3=
EXTT4=
EXTT5=
EXTT6=
EXTT7=
EXTT8=
EXTT9=
EXTT10=
EXTT11=
EXTT12=
EXTT13=
EXTT14=
EXTT15=
EXTT16=
EXTT17=
EXTT18=
EXTT19=
EXTT20=
EXTT21=
EXTT22=
EXTT23=
EXTT24=
PLAYORDER=
